<svg height="248" xmlns:xlink="http://www.w3.org/1999/xlink" width="269" viewBox="0 0 269 247.667" xmlns="http://www.w3.org/2000/svg"><defs/><g transform="translate(1.000000,1.000000)" id="shape1"><path d="M.0,.0L266.7,.0L266.7,245.7L.0,245.7L.0,.0zM.0,39.0L266.7,39.0L.0,39.0zM.0,154.0L266.7,154.0L.0,154.0z" fill-rule="nonzero" fill="#ffffff"/><path stroke="#101843" d="M.0,.0L266.7,.0L266.7,245.7L.0,245.7L.0,.0zM.0,39.0L266.7,39.0L.0,39.0zM.0,154.0L266.7,154.0L.0,154.0z" stroke-width="1" fill="none"/><text xml:space="preserve" style="fill:#191919;font-family:Arial;font-size:12.00pt"><tspan x="88.9" y="26.0">DownActivity</tspan></text><text xml:space="preserve" style="fill:#191919;font-family:Arial;font-size:12.00pt"><tspan x="4.4" y="65.0">+   stream: Stream</tspan><tspan x="4.4" y="84.0">+   path: str</tspan><tspan x="4.4" y="103.0">+   yt: YouTube</tspan><tspan x="4.4" y="122.0">+   progress_bar: ProgressBar</tspan><tspan x="4.4" y="141.0">+   progress_label: Text</tspan></text><text xml:space="preserve" style="fill:#191919;font-family:Arial;font-size:12.00pt"><tspan x="4.4" y="196.8">+   show_activity() : Row</tspan><tspan x="4.4" y="215.8">+   set_progress(progress: int) : void</tspan></text></g></svg>